<svg xmlns="http://www.w3.org/2000/svg" xmlns:xlink="http://www.w3.org/1999/xlink" version="1.1" x="0px" y="0px" viewBox="0 0 32 40" enable-background="new 0 0 32 32" xml:space="preserve"><g><g><path d="M23.997,18.787C23.884,14.474,20.34,11,16,11c-4.411,0-8,3.589-8,8c0,0.553,0.448,1,1,1h14    c0.007-0.001,0.013-0.001,0.02,0c0.552,0,1-0.447,1-1C24.02,18.927,24.012,18.855,23.997,18.787z"/><path d="M16,9c0.552,0,1-0.447,1-1V5c0-0.553-0.448-1-1-1s-1,0.447-1,1v3C15,8.553,15.448,9,16,9z"/><path d="M7.515,11.929c0.195,0.195,0.451,0.293,0.707,0.293s0.512-0.098,0.707-0.293c0.391-0.391,0.391-1.023,0-1.414L6.808,8.394    c-0.391-0.391-1.023-0.391-1.414,0s-0.391,1.023,0,1.414L7.515,11.929z"/><path d="M6,19c0-0.553-0.448-1-1-1H2c-0.552,0-1,0.447-1,1s0.448,1,1,1h3C5.552,20,6,19.553,6,19z"/><path d="M30,18h-3.001c-0.552,0-1,0.447-1,1s0.448,1,1,1H30c0.552,0,1-0.447,1-1S30.552,18,30,18z"/><path d="M23.777,12.223c0.256,0,0.512-0.098,0.707-0.293l2.122-2.122c0.391-0.391,0.391-1.023,0-1.414s-1.023-0.391-1.414,0    l-2.122,2.122c-0.391,0.391-0.391,1.023,0,1.414C23.266,12.125,23.521,12.223,23.777,12.223z"/><path d="M28,22H4c-0.552,0-1,0.447-1,1s0.448,1,1,1h24c0.552,0,1-0.447,1-1S28.552,22,28,22z"/><path d="M26,26H6c-0.552,0-1,0.447-1,1s0.448,1,1,1h20c0.552,0,1-0.447,1-1S26.552,26,26,26z"/></g></g><text x="0" y="47" fill="#FFFFFF" font-size="5px" font-weight="bold" font-family="'Helvetica Neue', Helvetica, Arial-Unicode, Arial, Sans-serif">Created by Asep Yopie Hardi Noer</text><text x="0" y="52" fill="#FFFFFF" font-size="5px" font-weight="bold" font-family="'Helvetica Neue', Helvetica, Arial-Unicode, Arial, Sans-serif">from the Noun Project</text></svg>